# xmcd
#
# Track frame offsets: 
#        150
#        27211
#        53236
#        67828
#        90478
#        102708
#        124125
#        138600
#        164211
#        187719
#        215511
#        231441
#        249072
#        272502
#        281919
#        300999
#
# Disc length: 4262 seconds
#
# Revision: 1
# Processed by: cddbd v1.5.2PL0 Copyright (c) Steve Scherf et al.
# Submitted via: ExactAudioCopy v1.0b2
#
DISCID=e310a410
DTITLE=Various Artist - Ambiances Magnetiques - Volume 4 - Mystere
DYEAR=1999
DGENRE=Jazz
TTITLE0=Pierre Tanguay,Tom Walsh - Midi Tapant
TTITLE1=Patrice Desbiens - Les Moyens dy Bord
TTITLE2=Callas_la diva ou le vinyle
TTITLE3=Fred Frith Guitar - Ayaya Moses
TTITLE4=Pierre Cartier - Chansons de Douve
TTITLE5=René Lussier, Martin Tétreault - Dur Noyau Dur
TTITLE6=Jean Derome - Under the Dark Cloth
TTITLE7=René Lussier - Chronique d'un genocide annoncee
TTITLE8=Jean Derome, Joane Hétu - Nous percons les oreilles
TTITLE9=Michel F. Côté, Bernard Falaise, Alexandre St-Onge Klaxon Gueu
TTITLE9=le - Bavards
TTITLE10=Jean Derome et les Dangereux Zhoms - Torticolis
TTITLE11=René Lussier, Pierre Tanguay La vie qui bat - Chevreuil
TTITLE12=Diane Labrosse, Ikue Mori, Martin Tétreault - Ile bizarre
TTITLE13=Joane Hétu Castor et Compagnie - Mets ta langue
TTITLE14=Fred Frith Guitar Quartet - Upbeat
TTITLE15=L'orkestre des pas perdus - Maison douce maison
EXTD=YEAR: 1999
EXTT0=
EXTT1=
EXTT2=
EXTT3=
EXTT4=
EXTT5=
EXTT6=
EXTT7=
EXTT8=
EXTT9=
EXTT10=
EXTT11=
EXTT12=
EXTT13=
EXTT14=
EXTT15=
PLAYORDER=
